HIERARCHY
ROOT Hips
{
	OFFSET 0.000000 0.000000 0.000000
	CHANNELS 6 Xposition Yposition Zposition Yrotation Xrotation Zrotation
	JOINT Chest
	{
		OFFSET 0.000000 -0.009281 11.569106
		CHANNELS 3 Yrotation Xrotation Zrotation
		JOINT Chest2
		{
			OFFSET -0.000000 0.016865 9.269641
			CHANNELS 3 Yrotation Xrotation Zrotation
			JOINT Chest3
			{
				OFFSET -0.000000 0.000001 8.374491
				CHANNELS 3 Yrotation Xrotation Zrotation
				JOINT Chest4
				{
					OFFSET -0.000000 0.000001 8.374493
					CHANNELS 3 Yrotation Xrotation Zrotation
					JOINT Neck
					{
						OFFSET -0.000000 0.000002 12.152554
						CHANNELS 3 Yrotation Xrotation Zrotation
						JOINT Head
						{
							OFFSET -0.000000 0.040101 7.802319
							CHANNELS 3 Yrotation Xrotation Zrotation
							End Site
							{
								OFFSET -0.000000 0.020947 14.853096
							}
						}
					}
					JOINT RightCollar
					{
						OFFSET 2.894404 0.000001 6.791374
						CHANNELS 3 Yrotation Xrotation Zrotation
						JOINT RightShoulder
						{
							OFFSET 13.574684 0.000001 0.000000
							CHANNELS 3 Yrotation Xrotation Zrotation
							JOINT RightElbow
							{
								OFFSET 23.923903 0.000002 0.000000
								CHANNELS 3 Yrotation Xrotation Zrotation
								JOINT RightWrist
								{
									OFFSET 19.846718 0.012767 0.000000
									CHANNELS 3 Yrotation Xrotation Zrotation
									End Site
									{
										OFFSET 14.973145 0.000001 0.000000
									}
								}
							}
						}
					}
					JOINT LeftCollar
					{
						OFFSET -2.894404 0.000001 6.791374
						CHANNELS 3 Yrotation Xrotation Zrotation
						JOINT LeftShoulder
						{
							OFFSET -13.574684 -0.000001 0.000000
							CHANNELS 3 Yrotation Xrotation Zrotation
							JOINT LeftElbow
							{
								OFFSET -23.923903 -0.000002 0.000000
								CHANNELS 3 Yrotation Xrotation Zrotation
								JOINT LeftWrist
								{
									OFFSET -19.846718 0.012763 0.000000
									CHANNELS 3 Yrotation Xrotation Zrotation
									End Site
									{
										OFFSET -14.973145 -0.000001 0.000000
									}
								}
							}
						}
					}
				}
			}
		}
	}
	JOINT RightHip
	{
		OFFSET 9.469263 0.004643 0.045487
		CHANNELS 3 Yrotation Xrotation Zrotation
		JOINT RightKnee
		{
			OFFSET 0.000000 0.002661 -40.478676
			CHANNELS 3 Yrotation Xrotation Zrotation
			JOINT RightAnkle
			{
				OFFSET 0.000000 0.049106 -35.224068
				CHANNELS 3 Yrotation Xrotation Zrotation
				JOINT RightToe
				{
					OFFSET -0.000001 12.539529 -6.151390
					CHANNELS 3 Yrotation Xrotation Zrotation
					End Site
					{
						OFFSET -0.000001 5.044994 -1.291870
					}
				}
			}
		}
	}
	JOINT LeftHip
	{
		OFFSET -9.469263 0.004641 0.045487
		CHANNELS 3 Yrotation Xrotation Zrotation
		JOINT LeftKnee
		{
			OFFSET 0.000000 0.002661 -40.478676
			CHANNELS 3 Yrotation Xrotation Zrotation
			JOINT LeftAnkle
			{
				OFFSET 0.000000 0.049106 -35.224068
				CHANNELS 3 Yrotation Xrotation Zrotation
				JOINT LeftToe
				{
					OFFSET -0.000001 12.539529 -6.151390
					CHANNELS 3 Yrotation Xrotation Zrotation
					End Site
					{
						OFFSET -0.000001 5.044994 -1.291870
					}
				}
			}
		}
	}
}
MOTION
Frames: 16
Frame Time: 0.016667
11.986659 9.257860 83.426949 -3.029016 1.230462 -107.116962 -1.119994 -4.250472 -0.014995 -0.520125 -1.887619 -0.024335 -0.520125 -1.887619 -0.024336 -0.390133 -1.415696 -0.019859 1.462756 -16.785632 -2.269751 1.911547 5.019876 -3.691462 9.789044 7.607468 0.292239 42.215388 -15.099523 -17.042095 -44.889697 -64.386861 108.981918 -64.199161 38.870876 34.933908 -8.378760 3.962903 -4.980411 -40.832507 -14.527857 20.921851 17.677848 -61.850962 -78.612622 35.730779 24.324921 -68.341951 0.559637 -4.244736 -18.415638 3.440641 -1.732555 -6.144903 -5.617318 3.497805 1.046415 0.099182 -0.090462 0.024748 -2.537589 -1.809067 14.092953 -1.465543 -0.337822 12.163985 -0.542282 -3.320613 2.589242 -0.156557 -0.664995 -0.003921 
12.262892 9.496560 83.405975 -3.067436 1.011369 -107.091137 -0.972041 -4.221277 -0.120800 -0.468134 -1.877403 -0.060515 -0.468135 -1.877403 -0.060513 -0.351256 -1.408008 -0.046816 1.461802 -16.809944 -2.250816 1.916881 4.974812 -3.656648 9.761122 7.615179 0.286865 42.165302 -15.010587 -17.177053 -45.064277 -64.218825 109.170554 -64.176259 38.919203 34.956280 -8.422644 3.922027 -5.021955 -40.932542 -14.667427 20.884251 17.488001 -61.901875 -78.314915 35.774690 24.358487 -68.251150 0.572008 -4.465687 -18.353096 3.351683 -1.760203 -6.114929 -5.389050 3.550059 0.950318 0.145254 -0.078322 0.023123 -2.643472 -2.116715 13.874163 -1.474267 -0.285651 11.995805 -0.156955 -2.567692 3.248710 -0.274471 -0.898615 -0.002241 
12.530529 9.716980 83.384232 -3.132342 0.817172 -107.098015 -0.854135 -4.224396 -0.194868 -0.425995 -1.877429 -0.082703 -0.425995 -1.877428 -0.082704 -0.319722 -1.408014 -0.063328 1.456461 -16.816201 -2.239267 1.911158 4.963162 -3.637116 9.729552 7.620691 0.298010 42.099076 -14.915712 -17.274855 -45.210105 -64.083130 109.340831 -64.133578 38.917250 34.986760 -8.441468 3.894655 -5.064466 -41.037406 -14.784296 20.836954 17.290310 -61.934100 -78.041400 35.829356 24.385293 -68.158130 0.571270 -4.713209 -18.266578 3.239277 -1.750954 -6.119121 -5.172448 3.571373 0.926607 0.194526 -0.064511 0.008140 -2.739110 -2.287112 13.558765 -1.487010 -0.417637 11.967177 0.208282 -1.914253 3.879911 -0.353423 -0.987187 0.007012 
12.775661 9.935786 83.364708 -3.234846 0.632070 -107.140970 -0.761531 -4.258472 -0.247637 -0.397968 -1.885469 -0.086156 -0.397968 -1.885469 -0.086153 -0.298716 -1.414047 -0.065838 1.458272 -16.815379 -2.234132 1.916307 4.964740 -3.626962 9.703873 7.640030 0.299956 42.030781 -14.880909 -17.319413 -45.268394 -64.020729 109.446446 -64.089031 38.876101 35.017741 -8.419968 3.871149 -5.096298 -41.149759 -14.860052 20.784570 17.081299 -61.936196 -77.774415 35.870040 24.414632 -68.101740 0.551868 -4.976384 -18.188729 3.119761 -1.737776 -6.147726 -4.952299 3.578254 0.999275 0.225805 -0.064328 -0.029705 -2.808010 -2.506907 13.252753 -1.563705 -0.576938 12.046972 0.581125 -1.352323 4.402287 -0.416623 -0.954947 0.006902 
13.036108 10.169663 83.347252 -3.355310 0.480183 -107.287143 -0.722418 -4.300645 -0.226333 -0.383244 -1.896828 -0.068070 -0.383244 -1.896827 -0.068073 -0.287619 -1.422580 -0.052237 1.475400 -16.813752 -2.236812 1.947067 4.968035 -3.625912 9.681826 7.641912 0.294800 41.974948 -14.884428 -17.291425 -45.263226 -64.034014 109.515916 -64.076368 38.826586 35.022895 -8.398989 3.885942 -5.114550 -41.215605 -14.903365 20.752686 16.905543 -61.913302 -77.557249 35.889229 24.430192 -68.089118 0.469558 -5.238607 -18.093426 3.003263 -1.734516 -6.166819 -4.719607 3.561022 1.118701 0.246225 -0.055114 -0.058866 -2.924640 -2.765094 13.129428 -1.645368 -0.658818 12.140732 0.958949 -0.881790 4.712841 -0.459202 -0.891026 0.003808 
13.311666 10.418844 83.337036 -3.463036 0.335634 -107.534048 -0.700553 -4.326838 -0.140546 -0.378674 -1.904727 -0.029216 -0.378675 -1.904727 -0.029216 -0.284071 -1.428528 -0.023091 1.503907 -16.818653 -2.246401 1.996600 4.959379 -3.633634 9.659341 7.603173 0.281508 41.953884 -14.926617 -17.203421 -45.216426 -64.087849 109.542205 -64.116645 38.799173 34.991093 -8.377230 3.892949 -5.130324 -41.245689 -14.855718 20.743937 16.863863 -61.867457 -77.456025 35.863401 24.425018 -68.103516 0.363808 -5.475550 -17.943412 2.881621 -1.737645 -6.218402 -4.475546 3.526060 1.290979 0.262231 -0.043779 -0.072499 -3.065759 -3.076301 13.229472 -1.728894 -0.661303 12.190620 1.303159 -0.464866 4.942004 -0.465280 -0.800454 -0.001265 
13.611129 10.674014 83.331726 -3.542129 0.181109 -107.850388 -0.668142 -4.336798 -0.014915 -0.379138 -1.903879 0.024993 -0.379138 -1.903880 0.024994 -0.284249 -1.427925 0.017562 1.536808 -16.829706 -2.264995 2.051216 4.939334 -3.656502 9.645593 7.561672 0.274754 41.964286 -15.012170 -17.130980 -45.139269 -64.149615 109.539541 -64.193929 38.801676 34.931794 -8.360156 3.944007 -5.124578 -41.274498 -14.750113 20.763444 16.907290 -61.845246 -77.397689 35.793627 24.380309 -68.152556 0.268041 -5.710392 -17.770052 2.752151 -1.701901 -6.249499 -4.206771 3.492606 1.494160 0.264209 -0.061169 -0.083063 -3.209961 -3.410030 13.575295 -1.788768 -0.597321 12.081282 1.582394 -0.107391 5.106569 -0.431886 -0.692193 -0.005787 
13.925517 10.938466 83.329941 -3.600171 0.063835 -108.191685 -0.658454 -4.325241 0.122119 -0.380730 -1.896905 0.083406 -0.380730 -1.896906 0.083402 -0.285262 -1.422731 0.061364 1.565853 -16.842727 -2.290216 2.096388 4.915547 -3.693002 9.643239 7.539541 0.286573 41.976919 -15.114517 -17.113471 -45.056262 -64.212937 109.544650 -64.298848 38.827511 34.857389 -8.357626 4.045928 -5.107573 -41.321828 -14.603088 20.804850 17.021506 -61.876999 -77.352186 35.686226 24.337475 -68.245454 0.129124 -5.936077 -17.562856 2.638022 -1.633481 -6.222927 -3.930895 3.417413 1.586166 0.256516 -0.060184 -0.079200 -3.396434 -3.742440 14.026091 -1.855087 -0.503602 11.875385 1.832692 0.246556 5.272826 -0.376413 -0.598513 -0.006349 
14.231933 11.209701 83.330399 -3.618629 -0.025515 -108.510717 -0.649704 -4.283892 0.242436 -0.380577 -1.883093 0.134002 -0.380577 -1.883093 0.134005 -0.284995 -1.412404 0.099320 1.586355 -16.854419 -2.317948 2.124833 4.894086 -3.737165 9.645102 7.521450 0.294286 41.986310 -15.201505 -17.119458 -44.978216 -64.280973 109.554861 -64.411887 38.877549 34.778189 -8.371248 4.141665 -5.091643 -41.377815 -14.454150 20.831058 17.103847 -61.937358 -77.248032 35.574125 24.317563 -68.373595 -0.048486 -6.105625 -17.309892 2.552150 -1.581189 -6.189434 -3.643141 3.339382 1.625679 0.233435 -0.059192 -0.075860 -3.591460 -4.011366 14.372731 -1.925633 -0.425639 11.704607 2.069574 0.580764 5.436447 -0.320854 -0.508274 -0.005746 
14.515958 11.477893 83.330711 -3.599706 -0.098724 -108.768365 -0.632410 -4.216786 0.316402 -0.374367 -1.859280 0.165815 -0.374367 -1.859280 0.165814 -0.280246 -1.394562 0.123211 1.592347 -16.865762 -2.340013 2.128389 4.873042 -3.775935 9.647527 7.465962 0.303466 41.993902 -15.230333 -17.134600 -44.899912 -64.346440 109.550374 -64.503084 38.932683 34.722127 -8.398551 4.185861 -5.074017 -41.434328 -14.362807 20.844072 17.127869 -61.986241 -77.091416 35.473547 24.358616 -68.497153 -0.217450 -6.216654 -17.056220 2.465163 -1.544829 -6.243198 -3.343813 3.269548 1.692557 0.200715 -0.059050 -0.071810 -3.777345 -4.194529 14.496624 -1.997664 -0.388672 11.668144 2.302725 0.906181 5.663290 -0.270363 -0.431212 -0.002799 
14.772033 11.739358 83.330391 -3.565723 -0.162624 -108.949932 -0.612120 -4.146102 0.340028 -0.361432 -1.831562 0.178364 -0.361432 -1.831563 0.178365 -0.270516 -1.373778 0.132680 1.585861 -16.867833 -2.354419 2.111358 4.869034 -3.804896 9.648580 7.420113 0.305704 42.011995 -15.217132 -17.189525 -44.837193 -64.382866 109.536003 -64.549666 38.977762 34.698495 -8.421961 4.158187 -5.071429 -41.488212 -14.349732 20.840744 17.097779 -61.999512 -76.915505 35.405310 24.432213 -68.580379 -0.370628 -6.288353 -16.898643 2.362125 -1.539063 -6.403509 -3.015076 3.227392 1.882063 0.156250 -0.063917 -0.070335 -3.941068 -4.311165 14.426596 -2.066086 -0.407868 11.719111 2.523453 1.222653 5.901331 -0.228167 -0.364452 -0.000510 
14.998947 11.998674 83.329048 -3.519541 -0.200311 -109.056374 -0.608624 -4.060095 0.305303 -0.343187 -1.807209 0.173465 -0.343187 -1.807209 0.173467 -0.256856 -1.355505 0.129074 1.569067 -16.858141 -2.355556 2.079675 4.886731 -3.812922 9.654743 7.394751 0.312767 42.026342 -15.170969 -17.276511 -44.827788 -64.380188 109.553762 -64.544707 38.994322 34.699215 -8.448747 4.111333 -5.079881 -41.527270 -14.423983 20.853642 17.007748 -61.996637 -76.743582 35.404986 24.512425 -68.596990 -0.539639 -6.308676 -16.830348 2.270861 -1.586758 -6.593661 -2.671327 3.194433 2.077176 0.098029 -0.047110 -0.067754 -4.107689 -4.366143 14.230145 -2.133889 -0.454859 11.777437 2.742828 1.514869 6.165829 -0.188927 -0.311292 0.005844 
15.206978 12.248357 83.325676 -3.481324 -0.274546 -109.146102 -0.573598 -3.998549 0.264709 -0.320739 -1.789916 0.156180 -0.320739 -1.789916 0.156183 -0.240078 -1.342519 0.116186 1.545424 -16.837330 -2.343577 2.039701 4.924997 -3.799069 9.652740 7.366912 0.307556 42.020092 -15.086090 -17.338466 -44.891548 -64.357580 109.630294 -64.503507 38.999789 34.720727 -8.470126 4.053621 -5.107805 -41.552258 -14.517601 20.884762 16.904293 -61.997456 -76.611076 35.458312 24.589429 -68.554240 -0.680373 -6.325109 -16.755743 2.209139 -1.673359 -6.720738 -2.336499 3.207870 2.197357 0.033391 -0.053523 -0.061402 -4.230044 -4.441067 14.107908 -2.191040 -0.473702 11.767554 2.938121 1.750581 6.383129 -0.148323 -0.255290 0.017709 
15.409336 12.492099 83.319946 -3.469010 -0.349407 -109.238152 -0.539174 -3.970987 0.233385 -0.301600 -1.782080 0.131346 -0.301599 -1.782079 0.131346 -0.225799 -1.336626 0.097623 1.523349 -16.802409 -2.320694 2.006207 4.989551 -3.764493 9.655120 7.357740 0.299983 41.988813 -14.993802 -17.373578 -45.017541 -64.331749 109.770497 -64.468981 38.998666 34.734609 -8.466626 3.989011 -5.134800 -41.569453 -14.576266 20.903722 16.796866 -62.031539 -76.513166 35.540278 24.618191 -68.475126 -0.835766 -6.363500 -16.638877 2.168626 -1.770387 -6.833343 -1.984859 3.241347 2.265212 -0.042318 -0.062504 -0.037589 -4.362914 -4.556246 14.135350 -2.237162 -0.466661 11.677823 3.114799 1.967600 6.513935 -0.106748 -0.210615 0.034919 
15.616556 12.742046 83.311836 -3.500482 -0.402692 -109.296352 -0.527752 -3.979998 0.177977 -0.285885 -1.783703 0.102595 -0.285885 -1.783703 0.102599 -0.214098 -1.337826 0.076109 1.503846 -16.761426 -2.293641 1.978843 5.065428 -3.721310 9.654263 7.354247 0.288648 41.948683 -14.937726 -17.378465 -45.104599 -64.298171 109.866154 -64.422023 38.991907 34.775826 -8.445554 3.903080 -5.167815 -41.586782 -14.589349 20.888175 16.681952 -62.068142 -76.419606 35.611780 24.591307 -68.395670 -1.038908 -6.456400 -16.584502 2.129386 -1.856490 -6.976925 -1.518270 3.303180 2.392987 -0.175662 -0.086524 -0.047831 -4.541679 -4.701544 14.240107 -2.262574 -0.459163 11.533770 3.276263 2.151871 6.622088 -0.065747 -0.153510 0.057357 
15.822258 12.992222 83.297363 -3.526242 -0.451014 -109.356752 -0.519576 -3.988678 0.125453 -0.271529 -1.787794 0.079343 -0.271529 -1.787793 0.079343 -0.203398 -1.340880 0.058710 1.487899 -16.722868 -2.268783 1.957358 5.136851 -3.680923 9.659387 7.350757 0.280392 41.902326 -14.922990 -17.370247 -45.131400 -64.264608 109.912258 -64.396499 38.994363 34.797775 -8.422214 3.814930 -5.203072 -41.599626 -14.600170 20.840304 16.614517 -62.097437 -76.373304 35.669652 24.561405 -68.325845 -1.262411 -6.562317 -16.618192 2.104762 -1.924247 -7.124750 -0.965126 3.377642 2.609186 -0.344040 -0.115557 -0.061088 -4.730995 -4.820628 14.385364 -2.261409 -0.480710 11.371682 3.424852 2.333283 6.732377 -0.034644 -0.099037 0.083296 
